<svg id="Layer_1" xmlns="http://www.w3.org/2000/svg" viewBox="0 0 500 500"><style>.st0{fill:#213444}.st1{fill:#fff}.st2{fill:none}</style><circle class="st0" cx="250" cy="250" r="250"/><path class="st1" d="M194.9 200.1c-7.6 40.7-8.4 79.3-7 109.5-7.6 4.4-19.5 14.8-25.6 38.9-9.3 36.3 1.7 77.3 1.7 77.3l25-97.9c2.3 26.4 5.5 43 5.5 43l55.3-296.6c0-.1-38.1 34.9-54.9 125.8zm142.9 148c-6.4-24.7-18.9-35.1-26.4-39.2 1.5-30.2.6-68.6-7-108.9-16.9-90.9-54.6-125.8-54.6-125.8l54.9 296.6s3.8-17.4 5.8-45.3L336 425.8s11-41 1.8-77.7zm-87.7-41.7" id="Слой_2_1_"/><path class="st2" d="M-1.5 397.5h503v63h-503v-63z"/></svg>