<svg width="98" height="37" viewBox="0 0 98 37" fill="none" xmlns="http://www.w3.org/2000/svg"><path fill-rule="evenodd" clip-rule="evenodd" d="M43.977 15.751a9.97 9.97 0 0 1-6.422-2.112 7.032 7.032 0 0 1-2.623-5.731 7.425 7.425 0 0 1 2.36-5.587A8.634 8.634 0 0 1 43.52.054a7.545 7.545 0 0 1 7.832 7.815v1.293l-11.2.006a2.853 2.853 0 0 0 1.63 1.719 8.934 8.934 0 0 0 3.443.6c1.814-.013 3.599-.459 5.206-1.3v4a11.517 11.517 0 0 1-6.453 1.561v.003zM40.15 6.402h5.986a2.399 2.399 0 0 0-.858-1.822 2.952 2.952 0 0 0-2-.7 3.283 3.283 0 0 0-2.1.677 2.8 2.8 0 0 0-1.031 1.852l.003-.007zM14.1 2.269a8.788 8.788 0 0 0-11.788 0A7.467 7.467 0 0 0 0 7.832a7.612 7.612 0 0 0 2.315 5.621 8.873 8.873 0 0 0 11.787 0 7.609 7.609 0 0 0 2.317-5.621 7.526 7.526 0 0 0-2.317-5.563H14.1zm-3.216 8.289a3.837 3.837 0 0 1-5.35 0 3.753 3.753 0 0 1-1.055-2.726 3.632 3.632 0 0 1 1.055-2.7 3.535 3.535 0 0 1 2.678-1.087 3.572 3.572 0 0 1 2.678 1.087 3.647 3.647 0 0 1 1.05 2.7 3.815 3.815 0 0 1-1.056 2.726zM27.492 0a6.455 6.455 0 0 0-4.569 1.772v-1.4H18.39v14.941h4.535v-8.2a2.744 2.744 0 0 1 1.294-2.378l.017-.01a3.3 3.3 0 0 1 1.7-.505 2.424 2.424 0 0 1 1.805.687 2.923 2.923 0 0 1 .692 2.146v8.266h4.53V6.207a6.706 6.706 0 0 0-1.44-4.549A5.1 5.1 0 0 0 27.492 0zM69.04 8.31a3.553 3.553 0 0 0-2.578.984 2.22 2.22 0 0 0-.22-.292 2.193 2.193 0 0 0-1.722-.692 3.031 3.031 0 0 0-1.406.326 2.574 2.574 0 0 0-1 .865 1.733 1.733 0 0 0-.767-.865 2.809 2.809 0 0 0-3.5.717v-.866H56.4v6.651h1.45v-4.39c.169-.314.417-.579.72-.767.294-.193.638-.298.99-.3.905 0 1.358.546 1.358 1.639v3.821h1.447v-4.35c.152-.324.393-.598.694-.791a1.778 1.778 0 0 1 1-.317c.895 0 1.343.546 1.344 1.639v.488a3.379 3.379 0 0 0 1.024 2.49c.134.133.278.255.431.364a3.643 3.643 0 0 0 2.181.652 3.56 3.56 0 0 0 2.6-1.016 3.406 3.406 0 0 0 1.023-2.492 3.366 3.366 0 0 0-1.023-2.48 3.56 3.56 0 0 0-2.6-1.015V8.31zm1.547 5.083a2.217 2.217 0 0 1-3.108 0 2.325 2.325 0 0 1 0-3.157 2.217 2.217 0 0 1 3.109 0 2.324 2.324 0 0 1 0 3.157zm6-4.708a2.57 2.57 0 0 0-1.008.955V8.487h-1.454v6.651h1.45V11.06a2.15 2.15 0 0 1 .835-.922c.397-.253.86-.385 1.331-.379.134.002.268.01.4.027V8.324a.464.464 0 0 0-.135-.014c-.499 0-.99.128-1.424.373l.005.002zm9.874 3.121a3.366 3.366 0 0 0-1.023-2.48 3.843 3.843 0 0 0-5.2 0 3.536 3.536 0 0 0 0 4.973 3.84 3.84 0 0 0 5.2 0c.277-.278.508-.6.683-.951h-1.693l-.04.042a2.215 2.215 0 0 1-3.106 0 2.059 2.059 0 0 1-.585-1.153h5.742c.017-.143.025-.287.025-.431h-.003zm-5.697-.677c.095-.338.276-.646.525-.894a2.217 2.217 0 0 1 3.108 0c.249.248.43.556.526.894h-4.16zM42.45 23.589A6.346 6.346 0 0 0 37.44 21.3a5.981 5.981 0 0 0-4.478 1.751v-6h-4.537V36.62h4.537v-1.352A5.907 5.907 0 0 0 37.439 37a6.4 6.4 0 0 0 5.014-2.255 8.24 8.24 0 0 0 1.985-5.607 8.009 8.009 0 0 0-1.986-5.549zm-3.55 8.28a3.342 3.342 0 0 1-2.613 1.082 3.59 3.59 0 0 1-1.971-.568 3.976 3.976 0 0 1-1.355-1.428v-3.639a3.8 3.8 0 0 1 1.35-1.409 3.633 3.633 0 0 1 1.977-.559 3.344 3.344 0 0 1 2.61 1.083 3.825 3.825 0 0 1 1.032 2.707 3.869 3.869 0 0 1-1.031 2.731zm17.548-2.186v-7.95h4.058V36.62H56.45v-2.167a6.233 6.233 0 0 1-4.8 2.116 4.85 4.85 0 0 1-3.855-1.579 6.45 6.45 0 0 1-1.387-4.39v-8.868h4.057v8.026a3.134 3.134 0 0 0 .763 2.318 2.683 2.683 0 0 0 1.971.753 3.55 3.55 0 0 0 1.828-.536l.017-.01a3.01 3.01 0 0 0 1.407-2.6h-.002zM71.779 21.3a6.032 6.032 0 0 0-3.116.871 6.24 6.24 0 0 0-1.654 1.409v-1.9h-4.53v14.94h4.53v-7.386a3.36 3.36 0 0 1 1.52-2.864 4.42 4.42 0 0 1 2.445-.7c.409-.004.816.042 1.213.137l.3.074v-4.496l-.183-.044a2.42 2.42 0 0 0-.519-.037l-.007-.004zm16.776 2.274a8.026 8.026 0 0 0-5.89-2.27 8.03 8.03 0 0 0-5.892 2.27 7.455 7.455 0 0 0-2.316 5.564 7.602 7.602 0 0 0 2.316 5.621 8.866 8.866 0 0 0 11.782 0 7.6 7.6 0 0 0 2.317-5.621 7.512 7.512 0 0 0-2.316-5.564zm-3.213 8.29a3.844 3.844 0 0 1-5.356 0 3.77 3.77 0 0 1-1.055-2.726 3.69 3.69 0 0 1 1.054-2.7 3.85 3.85 0 0 1 5.362 0 3.706 3.706 0 0 1 1.05 2.7 3.832 3.832 0 0 1-1.055 2.726zm11.859.347a2.734 2.734 0 0 0-4.68 1.936 2.759 2.759 0 0 0 .78 1.983 2.742 2.742 0 0 0 3.9 0 2.726 2.726 0 0 0 .8-1.982 2.628 2.628 0 0 0-.8-1.936v-.001zm-75.578-5.224H16.4v-5.255h-4.347v5.254H6.836v4.379h5.218v5.255h4.346v-5.254h5.217v-4.379h.006z" fill="#fff"/></svg>