<svg width="109" height="451" viewBox="0 0 109 451" fill="none" xmlns="http://www.w3.org/2000/svg"><g clip-path="url(#a)"><path fill-rule="evenodd" clip-rule="evenodd" d="M-.01 254.2c0 16.225 5.1 29.563 15.32 40.127a34.108 34.108 0 0 0-4.55 3.436C3.59 304.191 0 313.121-.01 324.552a47.243 47.243 0 0 0 5.07 21.879 40.24 40.24 0 0 0 13.46 15.6 27.046 27.046 0 0 0-13.46 11.947c-3.4 5.7-5.07 12.541-5.07 20.5 0 14.804 5.41 26.12 16.23 33.947H2.75v22.57h103.52v-22.57H37.95a31.702 31.702 0 0 1-11.94-11.226 28.288 28.288 0 0 1-4.71-15.39c0-14.105 8.5-21.155 25.5-21.15h59.47v-22.593h-67.7a29.47 29.47 0 0 1-12.34-10.8 27.684 27.684 0 0 1-4.93-15.6c0-13.924 8.5-20.894 25.5-20.909h7.59c15.32 0 28.25-5.303 38.79-15.909a53.247 53.247 0 0 0 5.67-6.707c6.76-9.413 10.143-20.726 10.15-33.939 0-16.188-5.273-29.655-15.82-40.4a53.021 53.021 0 0 0-38.79-15.917c-15.19 0-28.054 5.306-38.59 15.917C5.27 224.568 0 238.035-.01 254.202v-.002zm79.06-24.073a34.5 34.5 0 0 1 0 48.4c-6.47 6.391-14.69 9.616-24.66 9.616-9.83 0-17.98-3.225-24.45-9.616a34.499 34.499 0 0 1 0-48.4c6.47-6.39 14.62-9.623 24.45-9.623 9.97 0 18.19 3.233 24.66 9.623zM5.79 136.772a39.926 39.926 0 0 0 14.86 15.707H2.74v22.608h103.51v-22.614H42.79c-5.62-2.519-10.4-6.848-14.34-12.985a37.63 37.63 0 0 1-5.9-20.729c.026-2.099.17-4.195.43-6.278H.2a7.763 7.763 0 0 0-.21 2.1 45.061 45.061 0 0 0 5.8 22.187v.004zm48.6-153.764c-15.18 0-28.044 5.306-38.59 15.917C5.27 9.654 0 23.12-.01 39.325c0 16.467 5.27 30.005 15.81 40.615 10.54 10.624 23.403 15.927 38.59 15.91 15.32 0 28.253-5.303 38.8-15.91 10.533-10.6 15.803-24.138 15.81-40.615 0-16.188-5.27-29.655-15.81-40.4a56.342 56.342 0 0 0-14.8-10.631v26.33c.21.211.45.421.66.624a34.48 34.48 0 0 1 0 48.36 32.087 32.087 0 0 1-17.95 9.1V-16.61a53.991 53.991 0 0 0-6.71-.384v.002zM43.86 71.8a31.776 31.776 0 0 1-13.93-8.195 34.5 34.5 0 0 1 0-48.36 31.833 31.833 0 0 1 13.93-8.2V71.8z" fill="#fff"/></g><defs><clipPath id="a"><path fill="#fff" transform="translate(0 -17)" d="M0 0h109v468H0z"/></clipPath></defs></svg>